<svg width="78" height="78" viewBox="0 0 78 78" fill="none" xmlns="http://www.w3.org/2000/svg">
        <path d="M55.25 48.75V57.85C55.25 61.4903 55.25 63.3107 54.5415 64.701C53.9185 65.924 52.924 66.9185 51.701 67.5415C50.3106 68.25 48.4903 68.25 44.85 68.25H26.65C23.0097 68.25 21.1895 68.25 19.7991 67.5415C18.576 66.9185 17.5816 65.924 16.9585 64.701C16.25 63.3107 16.25 61.4903 16.25 57.85V18.1071C16.25 16.3808 16.25 15.5176 16.413 14.8036C16.9686 12.3694 18.8694 10.4686 21.3036 9.91295C22.0176 9.75 22.8808 9.75 24.6071 9.75H35.75M32.5 58.5H39M61.75 14.6251C60.125 14.222 57.4766 14.2072 55.25 14.222M55.25 14.222C54.5054 14.227 54.9555 14.1953 53.95 14.222C51.3259 14.3039 48.7552 15.3945 48.75 18.4845C48.7441 21.7762 52 22.7501 55.25 22.7501C58.5 22.7501 61.75 23.5015 61.75 27.0157C61.75 29.6566 59.1256 30.8138 55.8548 31.197C53.2548 31.197 52 31.2813 48.75 30.8751M55.25 14.222V9.75M55.25 31.1984V35.75" stroke="#9A0404" stroke-width="5.66667" stroke-linecap="round" stroke-linejoin="round"/>
        </svg>