<svg width="78" height="78" viewBox="0 0 78 78" fill="none" xmlns="http://www.w3.org/2000/svg">
        <g clip-path="url(#clip0_82_371)">
        <path d="M18.2812 76.7908H59.7188V10.9783H18.2812V76.7908ZM23.1562 22.4325C26.7292 22.0754 29.5999 19.3523 30.1927 15.8531H47.8122C48.4025 19.3523 51.2708 22.0754 54.8438 22.4325V36.5911C51.7397 32.0183 45.8174 28.9262 39 28.9262C32.1851 28.9262 26.2603 32.0159 23.1562 36.5886V22.4325ZM44.0679 41.6588C43.6942 41.1899 43.2038 40.9566 42.5991 40.9566C42.0516 40.9566 41.6374 41.1209 41.3447 41.4565C41.0519 41.7898 40.8615 42.3539 40.7829 43.1466L40.5924 45.3699C40.4448 47.0219 40.0068 48.2691 39.276 49.1142C38.5477 49.964 37.4813 50.3829 36.084 50.3829C35.2437 50.3829 34.5153 50.2162 33.8916 49.8831C33.2585 49.5497 32.7371 49.0857 32.3086 48.5048C31.8778 47.9169 31.5612 47.2193 31.3493 46.4076C31.2612 46.0505 31.1994 45.6768 31.1493 45.2984H28.7783V42.4705H31.0991C31.1682 41.6635 31.2943 40.8946 31.4943 40.171C31.7966 39.0641 33.0178 37.6145 33.0178 37.6145C33.0915 37.4907 33.2178 37.4098 33.3605 37.3907C33.501 37.3764 33.6486 37.4241 33.7461 37.524L35.1649 38.9428C35.3148 39.0904 35.3434 39.3284 35.2316 39.5141C35.2316 39.5141 34.3104 40.5758 34.0915 41.3803C33.8749 42.1801 33.763 42.9775 33.763 43.775C33.763 44.7771 33.9391 45.6078 34.2962 46.2649C34.6533 46.9242 35.2031 47.2504 35.9577 47.2504C36.5005 47.2504 36.9264 47.0885 37.2432 46.7647C37.555 46.441 37.7502 45.8935 37.8407 45.1199L38.0573 42.58C38.2025 41.0803 38.6167 39.9187 39.307 39.107C39.9972 38.2906 41.0423 37.8835 42.4419 37.8835C43.2132 37.8835 43.9011 38.0406 44.5081 38.3525C45.1128 38.6667 45.6245 39.0927 46.0435 39.6379C46.46 40.1807 46.7718 40.8139 46.9837 41.5375C47.0671 41.8375 47.1289 42.1516 47.1813 42.4706H49.2189V45.2986H47.217C47.1551 45.9604 47.048 46.5863 46.8885 47.1695C46.6148 48.1645 45.8031 49.2071 45.8031 49.2071C45.7363 49.3357 45.6102 49.4262 45.4627 49.4499C45.3175 49.469 45.1699 49.4213 45.0653 49.3191L43.7155 47.9882C43.5726 47.8502 43.5394 47.6311 43.6297 47.4503C43.6297 47.4503 44.1891 46.6624 44.3677 45.9815C44.5462 45.3031 44.6318 44.589 44.6318 43.8368C44.632 42.8562 44.4487 42.1277 44.0679 41.6588ZM23.1562 51.1803C26.2603 55.753 32.1851 58.8427 39 58.8427C45.8174 58.8427 51.7397 55.753 54.8438 51.1778V65.3315C51.2708 65.6886 48.4025 68.4164 47.8122 71.9156H30.1903C29.5999 68.4164 26.7292 65.6886 23.1562 65.3315V51.1803Z" fill="#9A0404" stroke="#9A0404" stroke-width="1.5625"/>
        <path d="M65.8125 1.20923H12.1875C5.45573 1.20923 0 6.66512 0 13.3967C0 20.1261 5.45589 25.5842 12.1875 25.5842H15.8438V18.2717C13.154 18.2717 10.9688 16.0842 10.9688 13.3967C10.9688 10.7069 13.154 8.52173 15.8438 8.52173H62.1562C64.846 8.52173 67.0312 10.7069 67.0312 13.3967C67.0312 16.0842 64.846 18.2717 62.1562 18.2717V25.5842H65.8125C72.5443 25.5842 78 20.1261 78 13.3967C78 6.66496 72.5443 1.20923 65.8125 1.20923Z" fill="#9A0404" stroke="#9A0404" stroke-width="1.5625"/>
        <path d="M39.001 26.0413C40.1579 26.0413 41.0957 25.1034 41.0957 23.9465C41.0957 22.7896 40.1579 21.8518 39.001 21.8518C37.8441 21.8518 36.9062 22.7896 36.9062 23.9465C36.9062 25.1034 37.8441 26.0413 39.001 26.0413Z" fill="#9A0404" stroke="#9A0404" stroke-width="1.5625"/>
        <path d="M39.001 65.9172C40.1579 65.9172 41.0957 64.9794 41.0957 63.8225C41.0957 62.6656 40.1579 61.7278 39.001 61.7278C37.8441 61.7278 36.9062 62.6656 36.9062 63.8225C36.9062 64.9794 37.8441 65.9172 39.001 65.9172Z" fill="#9A0404" stroke="#9A0404" stroke-width="1.5625"/>
        </g>
        <defs>
        <clipPath id="clip0_82_371">
        <rect width="78" height="78" fill="white"/>
        </clipPath>
        </defs>
        </svg>