<svg width="61" height="60" viewBox="0 0 61 60" fill="none" xmlns="http://www.w3.org/2000/svg">
<path opacity="0.2" fill-rule="evenodd" clip-rule="evenodd" d="M39 12H36C33.3391 11.9993 30.7535 12.8831 28.6497 14.5122C26.5459 16.1414 25.0432 18.4236 24.378 21H24C20.8174 21 17.7652 22.2643 15.5147 24.5147C13.2643 26.7652 12 29.8174 12 33C12 36.1826 13.2643 39.2348 15.5147 41.4853C17.7652 43.7357 20.8174 45 24 45H48C50.9506 45.0043 53.7994 43.9213 56.0021 41.958C58.2047 39.9947 59.6068 37.2887 59.9405 34.357C60.2742 31.4253 59.516 28.4734 57.8109 26.0653C56.1057 23.6573 53.5731 21.9619 50.697 21.303C50.0869 18.658 48.5981 16.2979 46.4736 14.6082C44.3491 12.9186 41.7145 11.9991 39 12Z" fill="#9A0404"/>
<path fill-rule="evenodd" clip-rule="evenodd" d="M33 9H30C27.3391 8.99932 24.7535 9.88306 22.6497 11.5122C20.5459 13.1414 19.0432 15.4236 18.378 18H18C14.8174 18 11.7652 19.2643 9.51472 21.5147C7.26428 23.7652 6 26.8174 6 30C6 33.1826 7.26428 36.2348 9.51472 38.4853C11.7652 40.7357 14.8174 42 18 42H42C44.9506 42.0043 47.7994 40.9213 50.0021 38.958C52.2047 36.9947 53.6068 34.2887 53.9405 31.357C54.2742 28.4253 53.516 25.4734 51.8109 23.0653C50.1057 20.6573 47.5731 18.9619 44.697 18.303C44.0869 15.658 42.5981 13.2979 40.4736 11.6082C38.3491 9.91855 35.7145 8.9991 33 9ZM20.703 21L21.282 18.75C21.781 16.8175 22.9082 15.1056 24.4864 13.8837C26.0645 12.6618 28.0041 11.9992 30 12H33C37.215 12 40.842 14.925 41.772 18.975L42.192 20.805L44.022 21.228C46.1731 21.7282 48.0654 23.0017 49.3387 24.8063C50.6121 26.6108 51.1777 28.8204 50.9281 31.0148C50.6784 33.2092 49.6309 35.2352 47.9847 36.7076C46.3385 38.1799 44.2085 38.9958 42 39H18C15.6131 39 13.3239 38.0518 11.636 36.364C9.94821 34.6761 9 32.3869 9 30C9 27.6131 9.94821 25.3239 11.636 23.636C13.3239 21.9482 15.6131 21 18 21H20.703Z" fill="#9A0404"/>
<path d="M33 49.5C33 49.8978 32.842 50.2794 32.5607 50.5607C32.2794 50.842 31.8978 51 31.5 51C31.1022 51 30.7206 50.842 30.4393 50.5607C30.158 50.2794 30 49.8978 30 49.5V27C30 26.6022 30.158 26.2206 30.4393 25.9393C30.7206 25.658 31.1022 25.5 31.5 25.5C31.8978 25.5 32.2794 25.658 32.5607 25.9393C32.842 26.2206 33 26.6022 33 27V49.5Z" fill="#9A0404"/>
<path d="M24.9355 34.17C24.6233 34.3964 24.236 34.4939 23.8539 34.4423C23.4718 34.3907 23.1243 34.1939 22.8834 33.8929C22.6425 33.5918 22.5268 33.2095 22.5604 32.8254C22.5939 32.4413 22.7741 32.0848 23.0635 31.83L30.5635 25.83C30.8756 25.6036 31.2629 25.5061 31.645 25.5577C32.0271 25.6093 32.3747 25.8061 32.6155 26.1072C32.8564 26.4082 32.9721 26.7905 32.9385 27.1746C32.905 27.5587 32.7248 27.9152 32.4355 28.17L24.9355 34.17Z" fill="#9A0404"/>
<path d="M39.9366 31.83C40.2259 32.0848 40.4061 32.4413 40.4396 32.8254C40.4732 33.2095 40.3575 33.5918 40.1166 33.8929C39.8757 34.1939 39.5282 34.3907 39.1461 34.4423C38.764 34.4939 38.3767 34.3964 38.0645 34.17L30.5646 28.17C30.4003 28.0508 30.2619 27.8996 30.1578 27.7254C30.0537 27.5512 29.986 27.3577 29.9588 27.1566C29.9316 26.9555 29.9456 26.7509 29.9998 26.5554C30.0539 26.3598 30.1472 26.1772 30.274 26.0188C30.4008 25.8603 30.5584 25.7292 30.7373 25.6334C30.9162 25.5376 31.1127 25.4791 31.3149 25.4615C31.517 25.4438 31.7207 25.4674 31.9135 25.5307C32.1063 25.5941 32.2842 25.6959 32.4366 25.83L39.9366 31.83Z" fill="#9A0404"/>
</svg>
