<svg width="78" height="78" viewBox="0 0 78 78" fill="none" xmlns="http://www.w3.org/2000/svg">
<path opacity="0.5" d="M9.75 32.5C9.75 20.2443 9.75 14.1147 13.559 10.309C17.368 6.50325 23.4943 6.5 35.75 6.5H42.25C54.5057 6.5 60.6352 6.5 64.441 10.309C68.2467 14.118 68.25 20.2443 68.25 32.5V45.5C68.25 57.7557 68.25 63.8852 64.441 67.691C60.632 71.4967 54.5057 71.5 42.25 71.5H35.75C23.4943 71.5 17.3647 71.5 13.559 67.691C9.75325 63.882 9.75 57.7557 9.75 45.5V32.5Z" fill="#BF0000"/>
<path d="M53.6848 53.6282C54.2536 53.1862 54.7703 52.6695 55.8006 51.6392L68.6609 38.7757C68.9729 38.467 68.8298 37.9307 68.4171 37.7845C66.4031 37.0864 64.5755 35.9369 63.0741 34.424C61.5611 32.9226 60.4116 31.0949 59.7136 29.081C59.5674 28.6682 59.0311 28.5252 58.7223 28.8372L45.8556 41.6975C44.8253 42.7277 44.3086 43.2445 43.8666 43.8132C43.3401 44.4871 42.8938 45.2086 42.5276 45.9777C42.2188 46.6277 41.9881 47.3232 41.5266 48.7077L40.9286 50.4952L39.9796 53.339L39.0923 56.004C38.9817 56.338 38.9661 56.6962 39.0473 57.0386C39.1285 57.3809 39.3032 57.694 39.552 57.9428C39.8008 58.1916 40.1139 58.3664 40.4563 58.4475C40.7986 58.5287 41.1568 58.5131 41.4908 58.4025L44.1558 57.5152L46.9996 56.5662L48.7871 55.9682C50.1716 55.5067 50.8671 55.2792 51.5171 54.9672C52.2863 54.5989 53.011 54.1526 53.6848 53.6282ZM72.6908 34.749C74.0092 33.4302 74.7497 31.6417 74.7494 29.7769C74.7491 27.9122 74.008 26.124 72.6892 24.8056C71.3704 23.4872 69.5819 22.7468 67.7172 22.7471C65.8525 22.7474 64.0642 23.4884 62.7458 24.8072L62.3363 25.2232C62.1387 25.4166 61.9914 25.6554 61.9076 25.9189C61.8237 26.1824 61.8058 26.4624 61.8554 26.7345C61.9204 27.0822 62.0341 27.5957 62.2453 28.2035C62.6678 29.4222 63.4674 31.0212 64.9721 32.526C66.4769 34.0307 68.0758 34.8302 69.2946 35.2527C69.9056 35.464 70.4158 35.5777 70.7636 35.6427C71.0356 35.6895 71.3149 35.6702 71.5779 35.5865C71.8409 35.5028 72.0799 35.3571 72.2748 35.1617L72.6908 34.749Z" fill="#BF0000"/>
<path fill-rule="evenodd" clip-rule="evenodd" d="M23.5625 29.25C23.5625 28.6035 23.8193 27.9835 24.2764 27.5264C24.7335 27.0693 25.3535 26.8125 26 26.8125H47.125C47.7715 26.8125 48.3915 27.0693 48.8486 27.5264C49.3057 27.9835 49.5625 28.6035 49.5625 29.25C49.5625 29.8965 49.3057 30.5165 48.8486 30.9736C48.3915 31.4307 47.7715 31.6875 47.125 31.6875H26C25.3535 31.6875 24.7335 31.4307 24.2764 30.9736C23.8193 30.5165 23.5625 29.8965 23.5625 29.25ZM23.5625 42.25C23.5625 41.6035 23.8193 40.9835 24.2764 40.5264C24.7335 40.0693 25.3535 39.8125 26 39.8125H35.75C36.3965 39.8125 37.0165 40.0693 37.4736 40.5264C37.9307 40.9835 38.1875 41.6035 38.1875 42.25C38.1875 42.8965 37.9307 43.5165 37.4736 43.9736C37.0165 44.4307 36.3965 44.6875 35.75 44.6875H26C25.3535 44.6875 24.7335 44.4307 24.2764 43.9736C23.8193 43.5165 23.5625 42.8965 23.5625 42.25ZM23.5625 55.25C23.5625 54.6035 23.8193 53.9835 24.2764 53.5264C24.7335 53.0693 25.3535 52.8125 26 52.8125H30.875C31.5215 52.8125 32.1415 53.0693 32.5986 53.5264C33.0557 53.9835 33.3125 54.6035 33.3125 55.25C33.3125 55.8965 33.0557 56.5165 32.5986 56.9736C32.1415 57.4307 31.5215 57.6875 30.875 57.6875H26C25.3535 57.6875 24.7335 57.4307 24.2764 56.9736C23.8193 56.5165 23.5625 55.8965 23.5625 55.25Z" fill="#BF0000"/>
</svg>
