<svg width="78" height="78" viewBox="0 0 78 78" fill="none" xmlns="http://www.w3.org/2000/svg">
<path d="M9.75 6.5H19.5C20.41 6.5 21.2225 6.8575 21.8075 7.4425L28.5675 14.235L31.1675 11.6675C32.5 10.4 34.125 9.75 35.75 9.75H55.25C56.875 9.75 58.5 10.4 59.8325 11.6675L63.0825 14.9175C64.35 16.25 65 17.875 65 19.5V61.75C65 63.4739 64.3152 65.1272 63.0962 66.3462C61.8772 67.5652 60.2239 68.25 58.5 68.25H26C24.2761 68.25 22.6228 67.5652 21.4038 66.3462C20.1848 65.1272 19.5 63.4739 19.5 61.75V26C19.5 24.375 20.15 22.75 21.4175 21.4175L23.985 18.8175L18.1675 13H9.75V6.5ZM35.75 16.25V22.75H55.25V16.25H35.75ZM37.0825 35.75L30.5825 29.25H26V33.8325L32.5 40.3325V50.6675L26 57.1675V61.75H30.5825L37.0825 55.25H47.4175L53.9175 61.75H58.5V57.1675L52 50.6675V40.3325L58.5 33.8325V29.25H53.9175L47.4175 35.75H37.0825ZM39 42.25H45.5V48.75H39V42.25Z" fill="#BF0000"/>
</svg>
