<svg width="78" height="78" viewBox="0 0 78 78" fill="none" xmlns="http://www.w3.org/2000/svg">
<path d="M44.8477 7.94121C42.114 7.95126 39.3973 8.22061 36.7908 8.66423C23.5785 10.9128 16.1312 16.8096 12.1126 25.0905C16.8681 24.7197 21.5583 24.3252 26.1231 24.3535C29.7967 24.3764 33.3893 24.673 36.8694 25.4763C39.1774 26.0095 40.625 28.0123 41.0752 30.3109C41.5253 32.6095 41.2059 35.3261 40.3051 38.1647L40.2613 38.3024L40.1901 38.4282C39.0076 40.5062 36.4937 42.1604 33.2896 43.9117C30.0856 45.6632 26.176 47.3688 22.2798 48.8519C18.3836 50.335 14.5084 51.591 11.3758 52.4224C10.2707 52.7156 9.2658 52.9525 8.36925 53.1319C8.71584 57.8743 9.36893 62.7874 10.1986 67.7538C31.5447 61.9267 51.8646 55.5834 71.6708 48.9768C75.6219 42.2041 76.23 35.807 74.2556 29.6697C70.8442 19.0658 64.9779 13.3616 58.2268 10.4488C54.0075 8.62828 49.4041 7.92445 44.848 7.94121H44.8477ZM19.831 27.3007C18.4508 27.3784 17.0484 27.4769 15.6367 27.5805L9.03378 50.1799C9.54931 50.0595 10.0904 49.9265 10.6721 49.7722C11.3172 49.5997 11.9601 49.4192 12.6008 49.2308C14.1275 44.4975 19.1972 29.2104 19.831 27.3007ZM12.7165 27.7977C11.0609 27.9235 9.39178 28.0497 7.70321 28.1587C7.65446 28.2265 7.59443 28.303 7.50242 28.5041C7.26171 29.0297 6.98826 29.9389 6.75411 31.0519C6.28565 33.278 5.93602 36.3423 5.73264 39.4121C5.52957 42.4818 5.46909 45.5726 5.55089 47.8796C5.59172 49.0332 5.67125 49.998 5.77057 50.6157C5.77789 50.6624 5.78246 50.6633 5.79038 50.7056C5.86046 50.7041 5.94775 50.6989 6.0259 50.6959L12.7165 27.7977ZM34.1233 27.8789C31.7473 27.8789 29.7571 29.7957 29.7571 32.1677C29.7571 34.5397 31.7473 36.4569 34.1233 36.4569C36.4992 36.4569 38.4894 34.5398 38.4894 32.1677C38.4894 29.7957 36.4992 27.8789 34.1233 27.8789ZM34.1233 30.6211C35.0556 30.6211 35.7473 31.3168 35.7473 32.1677C35.7473 33.0187 35.0556 33.7147 34.1233 33.7147C33.1909 33.7147 32.4993 33.0185 32.4993 32.1677C32.4993 31.3168 33.1909 30.6211 34.1233 30.6211ZM69.1913 52.6904C50.3301 58.9345 30.9675 64.9335 10.6706 70.4681C10.7335 70.8211 10.794 71.1735 10.8582 71.5266C33.3452 67.4666 49.8543 61.0202 67.4326 54.8961C68.0408 54.1786 68.6274 53.4429 69.1916 52.6902L69.1913 52.6904Z" fill="#BF0000"/>
</svg>
