<svg width="78" height="78" viewBox="0 0 78 78" fill="none" xmlns="http://www.w3.org/2000/svg">
          <g clip-path="url(#clip0_83_1153)">
          <path d="M7.87955 17.6598L4.90541 20.6341L3.62512 19.3538C1.41105 17.1397 1.41105 13.537 3.62512 11.3227L11.3217 3.62611C12.3943 2.55361 13.8203 1.96289 15.3371 1.96289C16.8539 1.96289 18.2799 2.55353 19.3525 3.62611L20.6328 4.9064L17.6586 7.88062L16.3783 6.60033C16.1001 6.32222 15.7304 6.16903 15.337 6.16903C14.9436 6.16903 14.5738 6.32222 14.2957 6.60033L6.59926 14.2968C6.02511 14.8709 6.02511 15.8053 6.59926 16.3795L7.87955 17.6598Z" fill="#9A0404" stroke="#9A0404" stroke-width="0.862815"/>
          <path d="M73.2594 62.1046C76.3396 65.1847 79.8968 73.7358 76.8166 76.816C74.4538 79.1788 68.872 77.6359 65.0097 75.3986C64.7302 75.2365 64.4861 74.8436 64.4692 74.521C64.3375 72.0067 64.0098 68.2265 64.0098 68.2265C64.0087 68.1003 63.9344 68.026 63.8082 68.0249L57.0276 67.8762C56.854 67.8725 56.7141 67.7325 56.7105 67.5588L56.5686 60.7851C56.5675 60.6589 56.4932 60.5846 56.3669 60.5835C56.3669 60.5835 51.9363 60.5444 50.1258 60.5281C49.7077 60.5243 49.1289 60.2815 48.8333 59.986C47.4139 58.5669 43.4071 54.5604 39.6658 50.8193L50.82 39.665L73.2594 62.1046Z" fill="#9A0404" stroke="#9A0404" stroke-width="0.862815"/>
          <path d="M6.39457 22.121L9.3687 19.1468L19.1478 9.36768L22.1221 6.39346L27.4014 1.11414C28.1442 0.371409 29.1178 0 30.0912 0C31.0647 0 32.0384 0.371409 32.7811 1.11414L52.3882 20.7212C56.3654 24.6984 56.3654 31.1469 52.3882 35.1241L49.3339 38.1784L38.1797 49.3326L35.1252 52.3871C33.1365 54.3758 30.5302 55.37 27.9238 55.37C25.3173 55.37 22.7109 54.3758 20.7224 52.3871L1.11526 32.7801C-0.370296 31.2945 -0.370296 28.886 1.11526 27.4005L6.39457 22.121ZM29.6222 41.5776C30.1552 42.1107 30.8149 42.4703 31.533 42.6311C31.8139 42.6939 32.1032 42.7274 32.3979 42.7274C33.4467 42.7274 34.4326 42.319 35.1739 41.5775L41.5789 35.1726C42.3202 34.4313 42.7287 33.4454 42.7287 32.3967C42.7287 32.0972 42.6943 31.8032 42.6293 31.5183C42.4671 30.8053 42.1086 30.1506 41.5789 29.6209C40.8375 28.8794 39.8516 28.4711 38.803 28.4711C37.7543 28.4711 36.7684 28.8794 36.0271 29.6209L35.7669 29.881L29.9101 35.7379L29.6222 36.0259C28.8807 36.7672 28.4723 37.753 28.4723 38.8018C28.4723 39.8503 28.8805 40.8362 29.6222 41.5776ZM10.3185 29.9385L14.1309 33.751C16.5953 36.2154 20.591 36.2154 23.0554 33.751L33.7521 23.0543C36.2165 20.5899 36.2165 16.5942 33.7521 14.1298L29.9396 10.3174C29.0192 9.39687 27.5268 9.39687 26.6062 10.3174L25.7196 11.204L11.2051 25.7185L10.3184 26.6052C9.39798 27.5256 9.39798 29.018 10.3185 29.9385Z" fill="#9A0404" stroke="#9A0404" stroke-width="0.862815"/>
          <path d="M37.8098 31.4048C38.0744 31.1401 38.4267 30.9941 38.8012 30.9941C39.1755 30.9941 39.5278 31.1399 39.7924 31.4048C40.0572 31.6696 40.2031 32.0217 40.2031 32.3961C40.2031 32.7706 40.0573 33.1228 39.7924 33.3875L33.3875 39.7924C33.1229 40.0571 32.7706 40.2031 32.3961 40.2031C32.0218 40.2031 31.6695 40.0573 31.4049 39.7924C31.1402 39.5276 30.9942 39.1755 30.9942 38.8011C30.9942 38.4266 31.14 38.0744 31.4049 37.8097L37.8098 31.4048Z" fill="#9A0404" stroke="#9A0404" stroke-width="0.862815"/>
          </g>
          <defs>
          <clipPath id="clip0_83_1153">
          <rect width="78" height="78" fill="white" transform="matrix(-1 0 0 1 78 0)"/>
          </clipPath>
          </defs>
          </svg>