<svg width="78" height="78" viewBox="0 0 78 78" fill="none" xmlns="http://www.w3.org/2000/svg">
<path fill-rule="evenodd" clip-rule="evenodd" d="M73.125 21.9376C73.1254 24.2052 72.6738 26.4501 71.7965 28.5412C70.9193 30.6322 69.6341 32.5274 68.016 34.1161C66.3979 35.7047 64.4793 36.9548 62.3725 37.7934C60.2657 38.632 58.0128 39.0422 55.7456 39.0001C50.9194 38.9075 45.5422 39.6436 42.5831 43.451L22.4494 69.3372C21.5943 70.4371 20.515 71.3425 19.2832 71.9934C18.0514 72.6442 16.6952 73.0256 15.3047 73.1122C13.9143 73.1987 12.5213 72.9886 11.2182 72.4956C9.9152 72.0026 8.73194 71.2381 7.74699 70.2528C6.76205 69.2675 5.99795 68.084 5.50543 66.7807C5.0129 65.4775 4.80322 64.0845 4.8903 62.694C4.97738 61.3036 5.35923 59.9476 6.0105 58.716C6.66176 57.4844 7.56755 56.4055 8.66773 55.5507L34.5491 35.417C38.3516 32.4579 39.0926 27.0807 39.0049 22.2545L39 21.9376C38.9991 19.2896 39.6146 16.6777 40.7978 14.3086C41.9809 11.9396 43.6992 9.87846 45.8167 8.28835C47.9342 6.69823 50.3927 5.62279 52.9977 5.14714C55.6026 4.67149 58.2826 4.80869 60.8254 5.54787C62.4097 6.00612 62.7266 7.97075 61.5566 9.13587L51.675 19.0224C51.2509 19.4345 50.9986 19.9919 50.9687 20.5824C50.9389 21.173 51.1337 21.753 51.5141 22.2057C52.8369 23.7397 54.2652 25.1681 55.7992 26.4909C56.252 26.8712 56.832 27.0661 57.4226 27.0363C58.0131 27.0064 58.5705 26.7541 58.9826 26.33L68.8642 16.4484C70.0294 15.2784 71.994 15.5952 72.4522 17.1796C72.8942 18.6941 73.1185 20.2801 73.125 21.9376ZM18.2812 63.3751C18.2812 64.3448 17.896 65.2748 17.2103 65.9605C16.5247 66.6462 15.5947 67.0314 14.625 67.0314C13.6553 67.0314 12.7253 66.6462 12.0396 65.9605C11.3539 65.2748 10.9687 64.3448 10.9687 63.3751C10.9687 62.4054 11.3539 61.4754 12.0396 60.7898C12.7253 60.1041 13.6553 59.7189 14.625 59.7189C15.5947 59.7189 16.5247 60.1041 17.2103 60.7898C17.896 61.4754 18.2812 62.4054 18.2812 63.3751Z" fill="#BF0000"/>
<path d="M56.0614 46.3126C57.5889 46.3126 59.079 46.1761 60.5317 45.9031L70.0965 55.4678C72.0359 57.4072 73.1254 60.0376 73.1254 62.7803C73.1254 65.523 72.0359 68.1534 70.0965 70.0928C68.1571 72.0322 65.5267 73.1217 62.784 73.1217C60.0413 73.1217 57.4109 72.0322 55.4715 70.0928L41.7727 56.3941L48.354 47.9408C48.5977 47.6288 49.1242 47.1706 50.4307 46.8049C51.786 46.4247 53.5459 46.2687 55.608 46.3077L56.0614 46.3126ZM24.3739 19.5001L31.4231 26.5444C31.3652 26.8896 31.2887 27.2313 31.194 27.5682C30.8284 28.8747 30.3701 29.4061 30.0581 29.6498L27.0844 31.9606L19.4989 24.3751H12.9469C12.7198 24.3751 12.4972 24.3116 12.3043 24.1919C12.1113 24.0722 11.9557 23.9009 11.8549 23.6974L5.27361 10.5349C5.15884 10.3058 5.1192 10.0464 5.16034 9.79345C5.20147 9.54052 5.32128 9.307 5.50273 9.12606L9.13461 5.49419C9.31554 5.31273 9.54907 5.19292 9.80199 5.15179C10.0549 5.11066 10.3144 5.15029 10.5435 5.26506L23.706 11.8463C23.9076 11.9485 24.0769 12.1047 24.1948 12.2976C24.3128 12.4904 24.3748 12.7123 24.3739 12.9383V19.5001Z" fill="#BF0000"/>
</svg>
