<svg width="78" height="78" viewBox="0 0 78 78" fill="none" xmlns="http://www.w3.org/2000/svg">
<path d="M36.5628 12.1875C35.9163 12.1875 35.2963 12.4443 34.8392 12.9014C34.3821 13.3585 34.1253 13.9785 34.1253 14.625C34.1253 15.2715 34.3821 15.8915 34.8392 16.3486C35.2963 16.8057 35.9163 17.0625 36.5628 17.0625H40.8186C41.2765 17.0625 41.7251 17.1914 42.1131 17.4346C42.5011 17.6777 42.8128 18.0252 43.0124 18.4373L47.1903 27.0709C46.5049 26.8983 45.8008 26.8115 45.094 26.8125H43.0392C40.6404 26.8125 38.289 27.4804 36.2484 28.7414C34.2078 30.0024 32.5586 31.8066 31.4855 33.9519L28.9651 39H15.844C13.3502 39.0007 10.9059 39.697 8.78608 41.0106C6.66623 42.3242 4.95482 44.203 3.84421 46.4359C2.7336 48.6688 2.26783 51.1673 2.49927 53.6504C2.7307 56.1335 3.65015 58.5028 5.15428 60.492C6.6584 62.4812 8.68755 64.0114 11.0136 64.9106C13.3397 65.8099 15.8705 66.0425 18.3216 65.5823C20.7726 65.1221 23.0467 63.9873 24.8882 62.3056C26.7297 60.6239 28.0656 58.4618 28.7457 56.0625H32.5092C34.5464 56.0624 36.5433 55.495 38.2761 54.4239C40.009 53.3528 41.4093 51.8202 42.3201 49.998L43.5535 47.5312H28.3362C27.8181 46.2061 27.0924 44.9719 26.1863 43.875H45.3816L45.3841 43.8701C46.9799 43.8165 48.5286 43.316 49.854 42.4258C51.1795 41.5355 52.2285 40.2912 52.8818 38.8342L54.22 41.6008C51.5261 43.5814 49.6695 46.4973 49.0146 49.7762C48.3597 53.0551 48.9537 56.4604 50.6801 59.3239C52.4065 62.1874 55.1407 64.3024 58.3461 65.2539C61.5515 66.2055 64.9969 65.9248 68.006 64.467C71.0152 63.0093 73.371 60.4796 74.6112 57.3744C75.8514 54.2693 75.8864 50.8127 74.7094 47.683C73.5325 44.5533 71.2285 41.9764 68.2495 40.4579C65.2705 38.9395 61.8316 38.589 58.6075 39.4753L56.9817 36.1116C57.8397 36.4041 58.7611 36.5625 59.719 36.5625H65.8128C66.4592 36.5625 67.0792 36.3057 67.5363 35.8486C67.9935 35.3915 68.2503 34.7715 68.2503 34.125V21.9375C68.2503 21.291 67.9935 20.671 67.5363 20.2139C67.0792 19.7568 66.4592 19.5 65.8128 19.5H59.719C56.014 19.5 52.8599 21.8644 51.6826 25.1623L47.3999 16.3142C46.8013 15.0776 45.8665 14.0345 44.7025 13.3047C43.5386 12.5748 42.1925 12.1876 40.8186 12.1875H36.5628ZM56.4016 46.1077L59.9603 53.469C60.2422 54.0511 60.7438 54.4975 61.3547 54.7098C61.9656 54.9221 62.6359 54.8831 63.218 54.6012C63.8002 54.3194 64.2465 53.8178 64.4588 53.2068C64.6712 52.5959 64.6321 51.9256 64.3503 51.3435L60.7891 43.9823C61.2359 43.9108 61.6918 43.875 62.1565 43.875C64.1468 43.8752 66.0743 44.5712 67.6056 45.8425C69.1368 47.1139 70.1754 48.8806 70.5415 50.8369C70.9076 52.7932 70.5782 54.8159 69.6103 56.555C68.6425 58.294 67.0971 59.64 65.2416 60.3599C63.3861 61.0798 61.3373 61.1283 59.4498 60.497C57.5623 59.8657 55.955 58.5944 54.9059 56.9031C53.8569 55.2117 53.4321 53.2069 53.7053 51.2354C53.9784 49.264 54.9322 47.4501 56.4016 46.1077ZM7.31276 52.4062C7.31276 51.2859 7.53343 50.1765 7.96216 49.1415C8.3909 48.1064 9.01931 47.1659 9.81151 46.3737C10.6037 45.5815 11.5442 44.9531 12.5792 44.5244C13.6143 44.0957 14.7237 43.875 15.844 43.875C16.9644 43.875 18.0737 44.0957 19.1088 44.5244C20.1438 44.9531 21.0843 45.5815 21.8765 46.3737C22.6687 47.1659 23.2971 48.1064 23.7259 49.1415C24.1546 50.1765 24.3753 51.2859 24.3753 52.4062C24.3753 54.6689 23.4764 56.8388 21.8765 58.4388C20.2766 60.0387 18.1066 60.9375 15.844 60.9375C13.5814 60.9375 11.4114 60.0387 9.81151 58.4388C8.21159 56.8388 7.31276 54.6689 7.31276 52.4062ZM56.0628 28.0312C56.0628 27.0616 56.448 26.1316 57.1337 25.4459C57.8193 24.7602 58.7493 24.375 59.719 24.375H63.3753V31.6875H59.719C58.7493 31.6875 57.8193 31.3023 57.1337 30.6166C56.448 29.9309 56.0628 29.0009 56.0628 28.0312Z" fill="#BF0000"/>
</svg>
