<svg width="78" height="78" viewBox="0 0 78 78" fill="none" xmlns="http://www.w3.org/2000/svg">
<path d="M70.9293 53.523C68.3761 52.9601 65.9633 53.4957 64.0328 54.7242L62.0906 52.4583C65.36 49.9752 69.5084 49.2798 76.444 50.6746C76.83 50.7513 77.2226 50.6525 77.5242 50.4056C77.8245 50.1573 78 49.7894 78 49.3994C78 45.8659 73.9414 41.5994 68.9 41.5994C67.9913 41.5994 67.1281 41.7034 66.2896 41.8568C66.1792 32.9973 64.6192 28.9803 59.4191 23.7803L59.0082 23.3695C57.3338 21.7016 56.2054 20.5628 55.3904 18.8767C57.0908 19.2719 59.007 19.4967 61.0726 19.4993C61.8007 19.4993 62.4 18.9273 62.4 18.1994V7.79947C62.4 7.09351 61.8331 6.50074 61.1273 6.49953C54.327 6.49297 49.0686 8.8409 48.2301 12.0869L39.7879 15.7047C39.1275 15.9869 38.8221 16.7512 39.1054 17.4116C39.316 17.9043 39.7957 18.1994 40.3001 18.1994C40.4716 18.1994 40.6459 18.1656 40.8123 18.0927L45.5924 16.044C45.6015 16.0675 45.5975 16.0922 45.6079 16.1142C51.3085 29.2742 52.4823 37.8828 49.1999 42.4327C46.6141 46.0167 41.0449 47.4949 31.7798 47.0192C30.9751 46.9776 30.4057 46.2105 30.5903 45.4267C31.0557 43.4443 31.8618 39.9653 32.2647 37.9491C32.4233 37.1456 31.8071 36.3994 30.9869 36.3994H4.06255C3.63751 36.3994 3.22801 36.597 2.99401 36.9532C2.37519 37.8932 1.83437 39.0216 1.38846 40.2994L0.425191 44.1994C0.157371 45.8153 0 47.5534 0 49.3994C0 53.9104 3.05114 55.7836 5.9085 56.7171C3.68291 59.4978 3.13432 63.4706 5.14145 66.9884C6.39463 69.1853 8.58122 70.7817 11.0577 71.2965C16.9181 72.5172 22.0999 68.0517 22.0999 62.3993C22.0999 61.6466 21.9763 60.9121 21.7957 60.1893C25.3863 60.6754 28.8755 60.9342 32.288 60.9342C39.5291 60.9342 46.4554 59.8253 53.426 57.6348C53.352 58.3549 53.2999 59.0778 53.2999 59.7993C53.2999 60.3829 53.6885 60.8952 54.2502 61.0512C54.3658 61.0837 54.4842 61.0994 54.5998 61.0994C55.047 61.0994 55.4734 60.868 55.7127 60.4714C57.2363 57.9468 58.6391 55.8551 60.1679 54.2093L62.0594 56.4168C60.3551 58.3628 59.4555 61.0305 59.9209 63.9034C60.5202 67.5993 63.4413 70.6283 67.1204 71.3303C73.5046 72.5471 79.0283 67.0377 77.8362 60.6547C77.181 57.1474 74.412 54.2913 70.9293 53.523ZM19.4375 63.3082C19.0722 66.033 16.9103 68.3016 14.2038 68.7903C9.41591 69.6548 5.33127 65.2335 6.8055 60.3818C7.13837 59.2847 7.81295 58.3188 8.66714 57.5543L8.73341 57.4945C10.4675 57.9638 12.1797 58.3966 13.8567 58.7697L11.9185 61.6778C11.5193 62.2746 11.6805 63.0832 12.2786 63.481C12.5009 63.6292 12.7518 63.6994 12.9987 63.6994C13.4186 63.6994 13.8321 63.4967 14.0816 63.121L16.6036 59.338C17.3966 59.4914 18.1806 59.6291 18.9618 59.7604L19.1281 60.231C19.4739 61.2074 19.5794 62.2525 19.4375 63.3082ZM67.1671 68.6733C65.0819 68.1299 63.3776 66.4933 62.7251 64.4392C61.9971 62.1473 62.5562 60.0167 63.7898 58.4318L67.9147 63.2444C68.1696 63.5446 68.5347 63.6994 68.9 63.6994C69.1991 63.6994 69.5006 63.5967 69.7451 63.3861C70.2911 62.9194 70.3548 62.0977 69.8856 61.5531L65.7619 56.7417C67.3388 55.8629 69.2705 55.5496 71.3624 56.3959C73.2837 57.1733 74.7709 58.8698 75.2286 60.8913C76.3204 65.7145 72.007 69.9342 67.1671 68.6733Z" fill="#9A0404"/>
<path d="M29.0938 28.5996H7.30317C5.19854 28.5996 3.89844 29.4083 3.89844 31.1997V32.4996C3.89844 33.2171 4.48085 33.7996 5.19839 33.7996H31.1984C31.916 33.7996 32.4984 33.2171 32.4984 32.4996V31.1997C32.4984 29.4083 31.1984 28.5996 29.0938 28.5996Z" fill="#9A0404"/>
</svg>