<svg width="25" height="26" viewBox="0 0 25 26" fill="#9A0404" xmlns="http://www.w3.org/2000/svg">
<path d="M17.0403 11.7695C17.0403 14.341 14.9645 16.4169 12.393 16.4169C9.82143 16.4169 7.74561 14.341 7.74561 11.7695C7.74561 9.19795 9.82143 7.12213 12.393 7.12213C14.9645 7.12213 17.0403 9.19795 17.0403 11.7695Z" fill="#9A0404"/>
<path fill-rule="evenodd" clip-rule="evenodd" d="M24.7859 13.3186C24.7859 20.1657 19.2401 25.7116 12.393 25.7116C5.54585 25.7116 0 20.1657 0 13.3186C0 6.47151 5.54585 0.925659 12.393 0.925659C19.2401 0.925659 24.7859 6.47151 24.7859 13.3186ZM6.19649 22.2261C6.44434 21.814 8.84548 17.966 12.3775 17.966C15.894 17.966 18.3106 21.8233 18.5585 22.2261C19.999 21.23 21.1759 19.8989 21.9882 18.3473C22.8004 16.7957 23.2236 15.07 23.2213 13.3186C23.2213 7.32353 18.3726 2.47478 12.3775 2.47478C6.38238 2.47478 1.53363 7.32353 1.53363 13.3186C1.53363 17.0055 3.37708 20.2742 6.19649 22.2261Z" fill="#9A0404"/>
</svg>
