<svg width="78" height="78" viewBox="0 0 78 78" fill="none" xmlns="http://www.w3.org/2000/svg">
<g clip-path="url(#clip0_82_418)">
<path d="M26.497 10.8987C26.4224 10.9005 26.3481 10.9076 26.2746 10.92H14.0414C6.30607 10.92 0.00135214 17.2247 0.00135214 24.96V29.378C-0.0264924 29.5464 -0.0264924 29.7183 0.00135214 29.8868L0.00135214 35.88V37.44V51.48C0.00135214 54.9261 2.79531 57.72 6.24135 57.72H6.30534C6.28391 57.9803 6.24135 58.2394 6.24135 58.5C6.24135 60.6017 6.93349 62.7243 8.3894 64.3622C9.8453 66.0001 12.0914 67.08 14.8214 67.08C17.5514 67.08 19.7974 66.0001 21.2533 64.3622C22.7092 62.7243 23.4014 60.6017 23.4014 58.5C23.4014 58.2394 23.3588 57.9803 23.3374 57.72H50.0554L70.0856 42.1413L70.113 42.117C70.0163 40.0312 69.8251 38.0421 69.5646 36.1451C69.5536 36.0593 69.5466 35.9658 69.5341 35.88H69.5219C68.013 25.2312 64.2855 17.6856 62.1332 14.04H67.0814C67.2881 14.0429 67.4933 14.0047 67.6851 13.9277C67.877 13.8506 68.0516 13.7361 68.1988 13.591C68.346 13.4458 68.4629 13.2729 68.5427 13.0822C68.6225 12.8914 68.6636 12.6868 68.6636 12.48C68.6636 12.2733 68.6225 12.0686 68.5427 11.8779C68.4629 11.6872 68.346 11.5142 68.1988 11.369C68.0516 11.2239 67.877 11.1095 67.6851 11.0324C67.4933 10.9553 67.2881 10.9171 67.0814 10.92H26.7834C26.6888 10.9041 26.5929 10.897 26.497 10.8987ZM14.0414 14.04H24.9614V28.08H3.12135V24.96C3.12135 18.9111 7.99248 14.04 14.0414 14.04ZM28.0814 14.04H46.8014V39.78C46.8014 44.5115 42.9513 48.36 38.2214 48.36H34.3214V43.68C34.3214 39.9136 31.6367 36.7636 28.0814 36.0385V29.902C28.1092 29.7336 28.1092 29.5617 28.0814 29.3932V14.04ZM54.6014 14.04H58.4435C59.4822 15.5549 64.0405 22.6617 66.1033 34.32H54.6014V14.04ZM3.12135 31.2H24.9614V35.88H3.12135V31.2ZM71.6364 44.8866L57.1424 56.16H59.647C59.4315 56.9078 59.2814 57.6831 59.2814 58.5C59.2814 63.2315 63.1314 67.08 67.8614 67.08C72.5913 67.08 76.4414 63.2315 76.4414 58.5C76.4414 57.6885 76.3208 56.9046 76.1092 56.16H76.4414C76.9094 56.16 77.3515 55.9522 77.6479 55.5902C77.9428 55.2299 78.0629 54.754 77.9709 54.2953C76.9054 48.9601 73.8782 46.2219 71.6364 44.8866ZM62.9498 56.16H72.7729C73.1138 56.8721 73.3214 57.6592 73.3214 58.5C73.3214 61.5108 70.8722 63.96 67.8614 63.96C64.8506 63.96 62.4014 61.5108 62.4014 58.5C62.4014 57.6592 62.6089 56.8721 62.9498 56.16ZM9.42838 57.72H20.2143C20.2471 57.9789 20.2814 58.2372 20.2814 58.5C20.2814 59.9083 19.8035 61.2957 18.9194 62.2903C18.0353 63.2849 16.7714 63.96 14.8214 63.96C12.8714 63.96 11.6074 63.2849 10.7233 62.2903C9.83921 61.2957 9.36135 59.9083 9.36135 58.5C9.36135 58.2372 9.39557 57.9789 9.42838 57.72Z" fill="#9A0404"/>
</g>
<defs>
<clipPath id="clip0_82_418">
<rect width="78" height="78" fill="white"/>
</clipPath>
</defs>
</svg>