<svg width="78" height="78" viewBox="0 0 78 78" fill="none" xmlns="http://www.w3.org/2000/svg">
<path d="M62.4644 3.23451C62.0531 3.23923 61.9812 3.32698 61.9742 3.33505C61.967 3.34328 61.8901 3.42722 61.944 3.83505C61.998 4.24287 62.2122 4.87936 62.6076 5.60635C63.3985 7.06032 64.8808 8.87671 66.8108 10.5485C68.7407 12.2205 70.7498 13.4286 72.3017 14.004C73.0776 14.2916 73.7383 14.4127 74.1497 14.408C74.561 14.4033 74.6331 14.3157 74.6402 14.3075C74.6472 14.2992 74.7238 14.2154 74.6699 13.8076C74.616 13.3998 74.4018 12.7633 74.0063 12.0363C73.2156 10.5824 71.7332 8.76596 69.8031 7.09398C67.8733 5.42216 65.8638 4.21408 64.3119 3.63868C63.536 3.3509 62.8759 3.22979 62.4644 3.23451ZM39 8.98823C19.2278 8.98823 3.19922 25.0168 3.19922 44.789C3.19922 54.3789 6.96973 63.0879 13.1092 69.5149C-0.799195 76.9441 28.8178 74.039 39 74.039C49.156 74.039 77.617 78.1767 69.3039 65.7092C73.7048 57.9591 74.8008 54.4052 74.8008 44.789C74.8008 34.9121 70.8008 25.9697 64.3328 19.4925L53.4982 25.9162L58.1929 14.5635C52.6457 11.0339 46.062 8.98823 39 8.98823ZM62.7684 10.6747L59.1761 19.3619L67.2622 14.5675L65.0167 12.6224L65.0154 12.6213L65.0142 12.6201L62.7684 10.6747ZM39 21.4804C51.8567 21.4804 62.3086 31.9323 62.3086 44.789C62.3086 57.6458 51.8567 68.0976 39 68.0976C26.1433 68.0976 15.6914 57.6458 15.6914 44.789C15.6914 31.9323 26.1433 21.4804 39 21.4804ZM39 24.2226C35.8896 24.2226 32.9433 24.9112 30.3027 26.1424C32.0618 31.1515 35.0723 37.4765 39 37.4765C42.934 37.4765 45.8442 31.1314 47.6458 26.1185C45.0183 24.9024 42.0901 24.2226 39 24.2226ZM54.0443 30.7551C49.8222 33.9761 44.7296 38.7973 45.9441 42.5354C47.16 46.2776 54.0957 47.0841 59.4203 47.2483C59.516 46.4418 59.5664 45.6216 59.5664 44.789C59.5664 39.3592 57.4709 34.4278 54.0443 30.7551ZM23.9215 30.7921C20.5151 34.4607 18.4336 39.3773 18.4336 44.789C18.4336 45.6345 18.4854 46.4675 18.5841 47.2859C23.8907 47.1602 30.8297 46.251 32.0428 42.5176C33.2576 38.7787 28.1306 34.0544 23.9215 30.7921ZM34.6142 37.4409C34.3648 37.448 34.122 37.523 33.9121 37.6579C33.7022 37.7928 33.5331 37.9824 33.423 38.2063C33.3129 38.4302 33.266 38.6799 33.2873 38.9285C33.3086 39.1771 33.3973 39.4152 33.544 39.6171C33.6828 39.8083 33.8687 39.9603 34.0836 40.0585C34.2985 40.1567 34.5351 40.1977 34.7705 40.1775C35.0059 40.1573 35.2321 40.0766 35.4271 39.9433C35.6222 39.8099 35.7795 39.6285 35.8837 39.4165C35.988 39.2044 36.0357 38.9691 36.0222 38.7332C36.0087 38.4973 35.9345 38.2689 35.8068 38.0702C35.6791 37.8714 35.5022 37.709 35.2932 37.5988C35.0842 37.4885 34.8503 37.4341 34.6142 37.4409ZM43.3858 37.4409C43.1497 37.4341 42.9157 37.4885 42.7068 37.5988C42.4978 37.709 42.3209 37.8714 42.1932 38.0702C42.0655 38.2689 41.9913 38.4973 41.9778 38.7332C41.9643 38.9691 42.012 39.2044 42.1163 39.4165C42.2205 39.6285 42.3778 39.8099 42.5729 39.9433C42.7679 40.0766 42.9941 40.1573 43.2295 40.1775C43.4649 40.1977 43.7015 40.1567 43.9164 40.0585C44.1313 39.9603 44.3172 39.8083 44.456 39.6171C44.6027 39.4152 44.6914 39.1771 44.7127 38.9285C44.734 38.6799 44.6871 38.4302 44.577 38.2063C44.4669 37.9824 44.2978 37.7928 44.0879 37.6579C43.878 37.523 43.6352 37.448 43.3858 37.4409ZM39 39.914C36.3076 39.914 34.125 42.0966 34.125 44.789C34.125 47.4814 36.3076 49.664 39 49.664C41.6924 49.664 43.875 47.4814 43.875 44.789C43.875 42.0966 41.6924 39.914 39 39.914ZM31.9469 45.7087C31.7322 45.7117 31.5212 45.7652 31.3309 45.8647C31.1406 45.9642 30.9764 46.107 30.8514 46.2817C30.7264 46.4563 30.6442 46.6578 30.6114 46.8701C30.5785 47.0823 30.596 47.2992 30.6624 47.5035C30.7748 47.8493 31.0199 48.1363 31.3439 48.3013C31.6679 48.4664 32.0441 48.4961 32.39 48.3837C32.7021 48.2823 32.9675 48.0724 33.138 47.792C33.3085 47.5116 33.3727 47.1794 33.3191 46.8556C33.2655 46.5319 33.0976 46.2381 32.8458 46.0277C32.594 45.8172 32.2751 45.704 31.9469 45.7087ZM45.9784 45.7096C45.6361 45.7233 45.3112 45.8647 45.0679 46.1059C44.8246 46.3472 44.6804 46.6707 44.6637 47.013C44.6471 47.3552 44.7592 47.6913 44.9779 47.955C45.1967 48.2187 45.5062 48.391 45.8457 48.4378C46.1851 48.4847 46.5297 48.4028 46.8118 48.2082C47.0938 48.0136 47.2928 47.7205 47.3695 47.3866C47.4462 47.0527 47.3951 46.7021 47.2263 46.404C47.0574 46.1058 46.7831 45.8817 46.4572 45.7757C46.3028 45.7255 46.1407 45.7031 45.9784 45.7096ZM32.0556 49.9318C28.7665 49.9477 24.4018 52.4961 21.0222 54.7959C23.9212 60.0011 29.0142 63.8091 35.0596 64.9781C36.5815 59.8913 37.8658 53.0011 34.687 50.6917C33.9475 50.1544 33.0513 49.927 32.0556 49.9318ZM45.9213 49.9349C44.9189 49.9349 44.0182 50.1658 43.2787 50.703C40.0955 53.0157 41.4715 59.8598 42.9606 64.9742C49.0067 63.7989 54.0982 59.9835 56.9915 54.7713C53.639 52.452 49.2319 49.9349 45.9213 49.9347V49.9349ZM39 50.8188C38.6364 50.8188 38.2876 50.9632 38.0305 51.2204C37.7734 51.4775 37.6289 51.8262 37.6289 52.1899C37.6289 52.5535 37.7734 52.9022 38.0305 53.1594C38.2876 53.4165 38.6364 53.561 39 53.561C39.3636 53.561 39.7124 53.4165 39.9695 53.1594C40.2266 52.9022 40.3711 52.5535 40.3711 52.1899C40.3711 51.8262 40.2266 51.4775 39.9695 51.2204C39.7124 50.9632 39.3636 50.8188 39 50.8188Z" fill="#BF0000"/>
</svg>
