<?xml version="1.0" encoding="UTF-8"?>
<svg xmlns="http://www.w3.org/2000/svg" xmlns:xlink="http://www.w3.org/1999/xlink" width="140px" height="80px" viewBox="0 0 140 80" version="1.1">
<g id="surface1">
<path style=" stroke:none;fill-rule:nonzero;fill:rgb(60.392159%,1.568628%,1.568628%);fill-opacity:1;" d="M 12.25 10 C 10.601562 11.148438 8.75 12.25 8.101562 12.5 C 6.351562 13.25 7.300781 14 9.949219 14 L 12.300781 14 L 12.300781 18.101562 C 12.300781 20.398438 12.351562 27.550781 12.398438 34.101562 L 12.5 45.898438 L 14.5 48.449219 C 15.601562 49.851562 16.5 51.101562 16.5 51.199219 C 16.5 51.351562 15 51.5 13.148438 51.601562 L 9.75 51.75 L 9.601562 54.351562 L 9.449219 57 L 20.601562 57 L 20.351562 61.75 C 20.148438 65.550781 20.25 66.5 20.800781 66.5 C 21.351562 66.5 21.5 65.449219 21.5 61.550781 C 21.5 56.5 22.050781 53.949219 23.449219 52.300781 C 24.199219 51.449219 24.898438 51.398438 32.351562 51.601562 C 37.550781 51.75 40.75 52.050781 41.199219 52.449219 C 41.601562 52.800781 42.050781 54.148438 42.25 55.550781 C 42.449219 57 42.800781 57.851562 43.101562 57.699219 C 43.398438 57.5 43.5 56.601562 43.351562 55.648438 C 43.148438 54.5 43.25 54 43.601562 54.101562 C 43.949219 54.25 44.101562 55.699219 44.050781 58.148438 L 43.949219 62 L 52 62 L 52 58.050781 C 52 53.648438 52.101562 53.5 56.300781 53.5 C 58.5 53.5 59.75 52.550781 61.199219 49.648438 C 61.648438 48.75 62.398438 48 62.800781 48 C 63.25 48 64.449219 47.101562 65.5 46 C 66.550781 44.898438 67.898438 44 68.5 44 C 69.050781 44 70.398438 43.550781 71.449219 43 C 72.75 42.351562 74.949219 41.898438 78.101562 41.699219 C 82.449219 41.398438 82.851562 41.449219 83.199219 42.300781 C 83.398438 42.851562 83.351562 43.300781 83 43.398438 C 82.699219 43.5 81.5 44.101562 80.25 44.75 C 77.898438 46 75.550781 46.25 71.148438 45.699219 C 68.300781 45.351562 67.699219 45.898438 69.550781 47.199219 L 70.648438 47.949219 L 69.550781 50.25 C 68.949219 51.5 67.550781 53.550781 66.398438 54.800781 C 65.300781 56 64.5 57.148438 64.648438 57.351562 C 65 57.699219 68.898438 53.851562 71.300781 50.75 L 72.800781 48.800781 L 76.25 50.050781 C 80.648438 51.648438 81.148438 52.648438 77.351562 52.199219 C 74.898438 51.898438 74.300781 52.050781 72.300781 53.199219 C 65.648438 57.101562 66.101562 64.800781 73.300781 69.351562 C 74.050781 69.800781 70.300781 69.898438 55.898438 69.851562 C 45.75 69.800781 37.5 69.601562 37.5 69.449219 C 37.5 69.25 38.050781 68.75 38.699219 68.351562 C 40.300781 67.25 41.5 64.5 41.5 61.800781 C 41.5 59.351562 40.398438 56 39.550781 56 C 39.300781 56 38.949219 55.550781 38.75 55.050781 C 37.949219 52.550781 30.300781 51.851562 26.601562 54 C 23.800781 55.601562 23.101562 56.75 22.699219 60.601562 C 22.351562 64.25 22.898438 65.800781 25.449219 68.199219 C 26.300781 69 26.898438 69.800781 26.800781 69.949219 C 26.699219 70.101562 23.050781 70.148438 18.648438 70 C 11.75 69.800781 -3.351562 70.148438 1.648438 70.398438 C 2.648438 70.449219 3.5 70.699219 3.5 70.949219 C 3.5 71.25 8 71.300781 14.898438 71.148438 C 27.601562 70.800781 31.351562 70.800781 56 70.851562 C 65.5 70.898438 75.398438 70.851562 78 70.851562 C 80.601562 70.800781 89.148438 70.851562 97 70.949219 C 104.851562 71 111.699219 71.050781 112.25 71 C 113.25 70.949219 113.25 70.949219 112.25 70.5 C 111.699219 70.25 104.449219 70.050781 96.148438 70.050781 C 87.800781 70 81 69.800781 81 69.601562 C 81 69.351562 81.5 68.898438 82.148438 68.550781 C 83.449219 67.851562 85 65.351562 85 63.949219 C 85 62.800781 84.5 62.800781 94.148438 63.851562 C 99.898438 64.449219 102.148438 64.550781 102.550781 64.148438 C 103.398438 63.300781 102.601562 62.398438 101.550781 63 C 100.5 63.550781 92.199219 63.101562 90.898438 62.398438 C 90.398438 62.148438 90 61.648438 90 61.25 C 90 60.300781 90.5 60.351562 91.699219 61.25 C 93.050781 62.25 97.300781 62.148438 99.5 61.101562 C 100.699219 60.5 102.351562 58.699219 104.800781 55.148438 C 108.449219 50 110.800781 47.5 112.101562 47.5 C 114.148438 47.5 113.398438 45.648438 110.101562 42.601562 C 108.800781 41.398438 108.101562 40.449219 108.5 40.5 C 109.949219 40.699219 110.5 40.5 110.5 39.699219 C 110.5 38.75 107.601562 35.898438 107 36.25 C 106.351562 36.648438 105 35.949219 105 35.199219 C 105 34.351562 104.300781 34.300781 102.949219 35 C 101.898438 35.601562 101.699219 36.800781 102.648438 37.148438 C 103.101562 37.300781 103.101562 37.5 102.550781 38.148438 C 102.199219 38.601562 102 39.300781 102.148438 39.699219 C 102.351562 40.148438 102.050781 40.550781 101.449219 40.75 C 100.949219 40.949219 100.5 41.398438 100.5 41.851562 C 100.5 42.5 100.648438 42.5 101.851562 41.75 C 103.101562 40.898438 103.199219 40.898438 104.050781 42.050781 C 105.449219 43.851562 106.050781 46.449219 105.398438 47.699219 C 104.601562 49.25 102.398438 51.5 101.648438 51.5 C 101.300781 51.5 101 51.75 101 52.050781 C 101 53.199219 97.300781 54.101562 93.75 53.898438 C 90.300781 53.648438 87.550781 52.550781 83.949219 49.898438 C 83.25 49.351562 81.800781 48.699219 80.699219 48.449219 C 75.851562 47.199219 75.75 47.148438 76.550781 46.800781 C 77 46.601562 78.351562 46.699219 79.550781 46.949219 C 82.800781 47.699219 82.800781 47.699219 83.5 45.199219 C 83.851562 43.949219 84.449219 42.800781 84.851562 42.648438 C 85.601562 42.351562 85.75 39.699219 84.949219 39.25 C 84.699219 39.050781 84 39.300781 83.5 39.75 C 82.648438 40.5 82.148438 40.5 76.351562 39.75 C 72.898438 39.351562 69.5 39.101562 68.75 39.300781 L 67.449219 39.648438 L 67.699219 33.199219 C 67.851562 29.648438 67.949219 24.199219 67.949219 21.050781 L 68 15.351562 L 72.5 15.601562 C 75 15.75 77 15.699219 77 15.5 C 77 15.25 76.25 14.648438 75.398438 14.050781 C 74.5 13.5 72.898438 12.300781 71.898438 11.449219 L 70.050781 9.851562 L 56.398438 9.449219 C 38 8.898438 28.398438 8.601562 21.25 8.25 L 15.25 7.949219 Z M 26.148438 10.398438 C 28.949219 11.101562 27.050781 11.5 20.351562 11.699219 C 14 11.851562 13.550781 11.800781 14.601562 11.050781 C 15.25 10.648438 16.050781 10.25 16.398438 10.148438 C 16.800781 10.101562 17.148438 10 17.25 9.898438 C 17.550781 9.601562 24.550781 10.050781 26.148438 10.398438 Z M 61.851562 11.601562 C 68.050781 11.699219 69.601562 11.898438 70.25 12.550781 C 71 13.300781 70.949219 13.398438 69.5 13.699219 C 68.648438 13.851562 67.550781 13.800781 67.101562 13.601562 C 66.648438 13.351562 63.101562 13.148438 59.25 13.050781 C 55.398438 13 50.449219 12.75 48.25 12.5 C 46.050781 12.25 42.5 12 40.351562 11.898438 C 38.199219 11.851562 36.300781 11.601562 36.148438 11.351562 C 36 11.050781 39.648438 11 45.050781 11.148438 C 50.101562 11.300781 57.648438 11.5 61.851562 11.601562 Z M 49.5 14.199219 C 57.601562 14.699219 64.949219 15.199219 65.75 15.300781 L 67.25 15.5 L 66.898438 20.398438 C 66.699219 23.050781 66.5 28.25 66.398438 31.851562 L 66.25 38.5 L 60.398438 38.5 C 54.199219 38.5 53 38.699219 53 39.75 C 53 40.75 53.949219 41.148438 54.75 40.5 C 55.648438 39.75 55.898438 40.351562 55.648438 42.75 C 55.5 44.199219 55.101562 44.949219 54.351562 45.25 C 53.800781 45.550781 53.199219 46.101562 53 46.5 C 51.449219 50 51.199219 50.25 49.5 50.398438 C 48.550781 50.5 46.300781 50.449219 44.601562 50.25 C 41.699219 49.949219 41.300781 49.75 40.601562 48.398438 C 39.101562 45.648438 37.351562 44.101562 35.398438 43.851562 C 34.351562 43.699219 33.5 43.648438 33.5 43.800781 C 33.5 43.949219 34.800781 45.25 36.398438 46.699219 C 37.949219 48.199219 39.050781 49.601562 38.851562 49.851562 C 38.601562 50.050781 35.148438 50.199219 31.148438 50.101562 C 24.648438 50 23.800781 50.101562 22.699219 50.949219 C 21.601562 51.800781 21.25 51.851562 19.851562 51.300781 C 18 50.5 14.898438 46.25 15.101562 44.75 C 15.199219 43.949219 15.75 43.699219 17.601562 43.5 C 18.898438 43.351562 20.351562 42.851562 20.851562 42.398438 C 21.5 41.851562 22.75 41.601562 25.25 41.601562 C 27.148438 41.601562 28.949219 41.75 29.25 41.898438 C 29.800781 42.25 30.75 42.351562 35 42.550781 C 37.101562 42.648438 37.75 42.5 37.75 41.949219 C 37.75 41.449219 36.800781 41.101562 34.648438 40.851562 C 32 40.5 31.5 40.25 31.5 39.449219 C 31.5 38.148438 33 37.601562 33.75 38.648438 C 34.550781 39.75 35.949219 39.75 36.351562 38.648438 C 36.550781 38.148438 36.25 37.5 35.550781 36.898438 C 34.5 36.101562 33.398438 36 26 36 L 17.601562 36 L 17.351562 34.351562 C 16.898438 31.101562 15.050781 25.25 14.351562 24.75 C 13.800781 24.351562 13.550781 22.800781 13.449219 19 L 13.25 13.75 L 19.25 13.5 C 28.351562 13.101562 33.398438 13.25 49.5 14.199219 Z M 14.5 34.648438 C 14.5 35.851562 14.800781 37.949219 15.148438 39.398438 C 15.898438 42.199219 15.800781 42.5 14.398438 42.5 C 13.601562 42.5 13.5 42 13.5 37.199219 C 13.5 33.851562 13.699219 32.050781 14 32.25 C 14.300781 32.398438 14.5 33.5 14.5 34.648438 Z M 21.25 39 C 21.25 39.898438 20.949219 40.300781 20.101562 40.398438 C 19.199219 40.550781 19.050781 40.800781 19.25 41.550781 C 19.601562 42.699219 18.25 43.449219 17.398438 42.601562 C 16.949219 42.148438 17.050781 41.800781 17.648438 41.101562 C 18.101562 40.601562 18.5 39.550781 18.5 38.800781 C 18.5 37.601562 18.648438 37.449219 19.898438 37.601562 C 20.949219 37.699219 21.25 38 21.25 39 Z M 30.851562 38.199219 C 30.898438 38.25 30.851562 38.800781 30.648438 39.398438 C 30.351562 40.550781 29 40.949219 29 39.851562 C 29 39.398438 28.898438 39.398438 28.601562 39.851562 C 28.199219 40.449219 26.148438 40.449219 25.148438 39.851562 C 24.851562 39.648438 24.449219 39.699219 24.25 40 C 23.648438 40.949219 22.5 40.5 22.5 39.351562 C 22.5 38.699219 22.601562 38.050781 22.75 37.898438 C 23 37.699219 30.550781 37.949219 30.851562 38.199219 Z M 107.699219 40.601562 C 107.898438 41.851562 108.601562 43.300781 109.300781 44.101562 C 110.851562 45.648438 110.601562 47.050781 108.699219 47.898438 C 106.898438 48.75 106.851562 48.699219 107.199219 46.75 C 107.550781 44.949219 106.25 41 105.050781 40.300781 C 103.949219 39.601562 104.5 38.5 105.949219 38.5 C 107.25 38.5 107.398438 38.699219 107.699219 40.601562 Z M 60.949219 40.300781 C 61.101562 40.449219 60.949219 40.75 60.601562 40.949219 C 60.199219 41.199219 60 42.101562 60.101562 43.300781 C 60.25 45.25 60.25 45.25 58.351562 45.25 C 57.351562 45.25 56.5 45.101562 56.5 44.851562 C 56.5 44.648438 56.5 43.898438 56.550781 43.101562 L 56.601562 41.75 L 57.398438 44.25 L 57.449219 42.949219 C 57.5 42.25 57.199219 41.398438 56.898438 41.101562 C 56.398438 40.601562 56.398438 40.351562 57 40 C 57.699219 39.550781 60.449219 39.75 60.949219 40.300781 Z M 65.300781 40 C 67.398438 40 67.550781 41 65.648438 41.851562 C 64.851562 42.199219 63.851562 43.148438 63.398438 44 C 62.25 46 61.300781 46 61.699219 43.949219 C 61.851562 43.101562 62 41.699219 62 40.898438 C 62 39.75 62.199219 39.449219 62.800781 39.699219 C 63.25 39.851562 64.351562 40 65.300781 40 Z M 82.5 45.25 C 82.5 46.199219 81.300781 46.75 80.449219 46.199219 C 80 45.949219 80.101562 45.648438 80.75 45.148438 C 81.949219 44.300781 82.5 44.300781 82.5 45.25 Z M 59.300781 49.199219 C 57.851562 51 57.101562 51.449219 54.898438 51.898438 C 52.050781 52.449219 51.5 52.351562 52.25 51.300781 C 52.550781 50.949219 53.398438 49.699219 54.148438 48.5 C 55.550781 46.449219 55.648438 46.398438 57.800781 46.648438 C 59.101562 46.800781 60.148438 46.648438 60.351562 46.351562 C 60.601562 45.949219 60.75 46 60.898438 46.398438 C 61 46.75 60.300781 48 59.300781 49.199219 Z M 84.25 51.5 C 84.851562 52.050781 85.648438 52.5 86.101562 52.5 C 86.550781 52.5 87 52.800781 87.148438 53.148438 C 87.699219 54.550781 99 55.75 99.75 54.5 C 100.101562 53.949219 104.101562 51.898438 104.351562 52.148438 C 104.75 52.601562 100.601562 57.949219 99.050781 59.050781 C 97.550781 60.050781 96.648438 60.25 93.5 60.25 C 91.449219 60.25 89.25 60.550781 88.648438 60.898438 C 87.398438 61.601562 86.648438 60.898438 87.75 60 C 88.800781 59.148438 88.699219 57.351562 87.5 55.898438 C 86.449219 54.5 83.898438 53.25 82.898438 53.648438 C 81.851562 54 80.398438 53 80.699219 52.148438 C 80.898438 51.699219 80.75 51.050781 80.398438 50.601562 C 79.851562 49.949219 79.949219 49.851562 81.5 50.148438 C 82.449219 50.351562 83.699219 50.949219 84.25 51.5 Z M 20.5 53.449219 C 20.5 55.101562 19.75 55.398438 15.351562 55.601562 L 11 55.75 L 11 52.449219 L 15.75 52.550781 C 19.800781 52.601562 20.5 52.75 20.5 53.449219 Z M 50.800781 55.800781 C 50.648438 57.101562 50.5 58.800781 50.5 59.550781 C 50.5 60.949219 50.449219 61 47.75 61 L 45 61 L 45 57.601562 C 45 55.699219 45.148438 54 45.351562 53.851562 C 45.5 53.648438 46.898438 53.5 48.398438 53.5 L 51.148438 53.5 Z M 78.75 54.5 C 78.949219 54.800781 79.25 54.898438 79.5 54.75 C 80.199219 54.300781 81.75 55.300781 82.75 56.800781 C 84.199219 59 82.851562 59.101562 80.75 56.949219 L 78.800781 54.898438 L 77.898438 56 C 77.398438 56.601562 77 57.300781 77 57.550781 C 77 58.25 78 58.050781 78.300781 57.300781 C 78.5 56.75 79 56.898438 80.550781 57.898438 C 84.101562 60.199219 83.148438 60.5 76.898438 59 C 71.101562 57.601562 71 57.601562 71 59.949219 C 71 61.699219 71.101562 61.851562 72.398438 61.851562 C 73.148438 61.851562 75.851562 62 78.398438 62.25 C 82.5 62.601562 83 62.75 83 63.648438 C 83 64.199219 82.199219 65.398438 81.199219 66.300781 C 79.25 68.148438 77.398438 68.449219 73.898438 67.5 C 71.398438 66.800781 69.5 63.699219 69.5 60.25 C 69.5 58.148438 69.699219 57.648438 71.25 56.199219 C 72.199219 55.300781 73.5 54.449219 74.101562 54.351562 C 76.300781 53.949219 78.449219 54 78.75 54.5 Z M 85.949219 56.351562 C 87.050781 57.648438 87.800781 58.898438 87.601562 59.101562 C 87 59.648438 84.398438 58.949219 84.699219 58.25 C 84.800781 57.898438 84.5 57 83.949219 56.199219 C 81.898438 53.101562 83.25 53.199219 85.949219 56.351562 Z M 35.800781 55 C 37.648438 55.648438 39.398438 58.199219 39.699219 60.601562 C 40.050781 63.699219 39.199219 65.851562 36.851562 67.550781 C 34.898438 69 34.5 69.101562 31.75 68.851562 C 29.148438 68.601562 28.550781 68.351562 27.148438 66.851562 C 23.398438 62.75 24.300781 57 29 54.898438 C 30.148438 54.398438 34.199219 54.449219 35.800781 55 Z M 85.75 60.949219 C 86.101562 61.550781 84.199219 62.199219 83.5 61.75 C 83.25 61.601562 83 61.25 83 60.949219 C 83 60.351562 85.351562 60.351562 85.75 60.949219 Z M 85.75 60.949219 "/>
<path style=" stroke:none;fill-rule:nonzero;fill:rgb(60.392159%,1.568628%,1.568628%);fill-opacity:1;" d="M 30.601562 60.601562 C 29.101562 62.101562 30.550781 64.351562 32.75 63.800781 C 33.851562 63.5 34.050781 63.25 33.898438 61.851562 C 33.800781 60.550781 33.5 60.199219 32.5 60.101562 C 31.800781 60 30.949219 60.25 30.601562 60.601562 Z M 30.601562 60.601562 "/>
<path style=" stroke:none;fill-rule:nonzero;fill:rgb(60.392159%,1.568628%,1.568628%);fill-opacity:1;" d="M 106 29.449219 C 106 30.949219 106.199219 31.5 106.800781 31.5 C 107.351562 31.5 107.5 31.050781 107.398438 29.648438 C 107.199219 27.050781 106 26.851562 106 29.449219 Z M 106 29.449219 "/>
<path style=" stroke:none;fill-rule:nonzero;fill:rgb(60.392159%,1.568628%,1.568628%);fill-opacity:1;" d="M 83.5 47.898438 C 83.5 48.351562 84.800781 49.148438 88.449219 51.050781 C 90.601562 52.199219 91.898438 52.5 94.25 52.5 C 97.699219 52.5 100.898438 51.5 101.601562 50.25 C 102.351562 49 101.398438 48.351562 98.148438 47.949219 C 94.199219 47.449219 83.5 47.398438 83.5 47.898438 Z M 97.5 49.851562 C 98.101562 50.398438 95.648438 51.5 93.800781 51.5 C 90.851562 51.5 89.5 51 89.5 50 C 89.5 49.199219 89.898438 49.148438 93.398438 49.351562 C 95.5 49.5 97.351562 49.699219 97.5 49.851562 Z M 97.5 49.851562 "/>
<path style=" stroke:none;fill-rule:nonzero;fill:rgb(60.392159%,1.568628%,1.568628%);fill-opacity:1;" d="M 111.398438 49.148438 C 110 50.25 108 54.550781 107 58.5 C 106.5 60.550781 105.949219 62.648438 105.75 63.101562 C 105.25 64.398438 106.351562 64.199219 107.199219 62.851562 C 107.601562 62.25 108.199219 60.648438 108.5 59.300781 C 109.199219 56.050781 109.75 55.148438 111.550781 54.25 C 113.550781 53.199219 114.5 53.851562 112.601562 55 C 110.949219 56 109.5 59.148438 109.5 61.800781 C 109.5 64.398438 110.800781 67 113.101562 69.148438 C 115.101562 71 115.300781 71.050781 118.449219 70.949219 C 121.25 70.851562 122.050781 70.648438 123.648438 69.351562 C 127.148438 66.601562 128.351562 62.5 126.75 58.648438 C 125.199219 54.949219 122.75 53.5 117.949219 53.5 C 115 53.5 114.5 53.199219 115.601562 52.101562 C 116.5 51.199219 119.148438 51.351562 122 52.5 C 124.699219 53.550781 125.449219 53 123 51.75 C 120.550781 50.449219 114.699219 48.5 113.449219 48.5 C 112.800781 48.5 111.851562 48.800781 111.398438 49.148438 Z M 113.949219 51.800781 C 113.199219 52.699219 111.5 52.699219 111.5 51.75 C 111.5 50.75 113.101562 49.949219 113.898438 50.601562 C 114.351562 51 114.351562 51.300781 113.949219 51.800781 Z M 122.398438 55.699219 C 125 57.050781 125.699219 58.300781 125.699219 61.648438 C 125.75 64 125.5 65.101562 124.75 66.101562 C 121.648438 70.25 115.648438 69.898438 112.398438 65.398438 C 111 63.398438 111 59.75 112.351562 57.398438 C 113.351562 55.699219 115 54.898438 115 56.101562 C 115 56.449219 115.699219 57.648438 116.5 58.699219 C 117.351562 59.800781 118 61.300781 118 62.101562 C 118 63.148438 118.25 63.5 119 63.5 C 120.300781 63.5 120.898438 62.050781 119.949219 61.300781 C 119.101562 60.648438 116 56 116 55.398438 C 116 54.75 120.949219 54.949219 122.398438 55.699219 Z M 122.398438 55.699219 "/>
<path style=" stroke:none;fill-rule:nonzero;fill:rgb(60.392159%,1.568628%,1.568628%);fill-opacity:1;" d="M 126.75 70.5 C 124.851562 70.648438 123.601562 70.898438 124 71.050781 C 125.25 71.601562 136.601562 71.550781 138.25 71.050781 C 139.101562 70.800781 139.550781 70.550781 139.25 70.5 C 138 70.25 129.898438 70.300781 126.75 70.5 Z M 126.75 70.5 "/>
</g>
</svg>