 <svg version="1.0" xmlns="http://www.w3.org/2000/svg"  width="300.000000pt" height="180.000000pt" viewBox="0 0 300.000000 180.000000"  preserveAspectRatio="xMidYMid meet">  <g transform="translate(0.000000,180.000000) scale(0.100000,-0.100000)" fill="#9a0404" stroke="none"> <path d="M348 1789 c8 -11 35 -19 75 -23 104 -11 726 -19 1008 -14 65 1 81 -2 104 -20 15 -12 32 -22 36 -22 5 0 9 -6 9 -12 0 -10 -35 -12 -147 -11 -167 3 -745 30 -810 39 -24 3 -48 2 -54 -2 -6 -4 -48 -8 -93 -10 -44 -2 -148 -6 -231 -9 l-150 -6 52 33 c58 36 71 63 26 52 -34 -8 -57 -20 -75 -37 -7 -8 -32 -26 -56 -41 -63 -40 -58 -48 32 -50 l40 -1 2 -75 c1 -41 5 -178 8 -305 10 -397 11 -402 80 -480 20 -22 36 -43 36 -47 0 -3 -37 -6 -82 -5 l-83 2 -3 -69 -3 -68 134 4 134 3 -1 -120 c-1 -97 2 -120 13 -120 12 0 15 26 16 135 2 188 21 228 112 236 27 3 53 5 60 6 6 1 14 10 16 20 4 15 -1 18 -31 18 -33 0 -88 -13 -122 -30 -8 -4 -16 -17 -18 -29 -4 -26 -18 -28 -25 -2 -3 13 -17 20 -48 24 -24 3 -45 11 -47 17 -2 6 -21 34 -43 62 -21 29 -39 63 -39 75 0 21 4 23 60 23 57 0 62 2 78 29 22 39 56 55 73 35 8 -10 15 -12 23 -4 14 14 26 12 26 -5 0 -8 4 -15 9 -15 5 0 7 9 4 20 -6 21 20 29 32 10 3 -5 11 -10 16 -10 6 0 7 5 4 10 -9 15 13 12 40 -6 14 -9 25 -12 25 -7 0 5 9 9 20 10 11 1 18 -2 15 -7 -3 -5 3 -9 12 -8 10 0 46 -3 81 -7 50 -5 62 -4 62 8 0 25 -24 36 -90 39 -63 3 -65 4 -68 31 -4 33 18 36 55 7 35 -27 68 -11 58 28 -12 47 -1 45 -262 42 l-192 -2 -5 23 c-3 13 -7 35 -9 49 -13 72 -52 177 -73 195 -20 18 -22 30 -26 145 l-3 124 190 4 c105 2 204 7 221 13 19 6 55 6 100 0 91 -13 236 -17 251 -8 7 5 22 3 34 -3 20 -11 113 -16 380 -19 l127 -1 -2 -280 -1 -280 -105 0 c-191 -1 -220 -6 -220 -39 0 -33 21 -42 48 -20 31 24 38 18 22 -21 -7 -16 -10 -39 -7 -51 4 -16 -1 -23 -23 -30 -28 -10 -42 -34 -56 -92 -8 -36 -30 -44 -129 -45 -108 -2 -138 9 -160 58 -27 60 -55 81 -118 87 -78 7 -78 -11 0 -27 60 -13 86 -31 68 -48 -3 -4 -13 2 -21 12 -7 11 -16 17 -20 14 -3 -4 4 -15 15 -25 44 -39 101 -95 101 -99 0 -2 -11 3 -26 12 -17 12 -28 14 -35 7 -7 -7 -21 -7 -45 0 -26 8 -41 7 -61 -3 -27 -13 -23 -14 72 -30 l99 -16 18 -64 c9 -36 17 -67 17 -70 1 -3 6 2 11 10 13 19 2 98 -16 128 -15 23 -6 30 14 10 9 -9 12 -9 12 0 0 7 7 12 16 12 11 0 14 -5 9 -17 -4 -10 -9 -49 -11 -88 -2 -38 -6 -84 -9 -101 -8 -47 9 -55 111 -50 49 2 90 4 91 5 1 1 4 45 5 98 l3 98 73 5 c69 5 75 7 102 40 16 19 34 49 40 67 9 26 17 32 43 35 23 2 33 9 37 27 3 13 14 29 25 35 11 6 24 16 30 22 5 6 30 16 55 23 25 7 52 19 60 26 8 7 61 18 118 24 148 16 152 15 152 -13 0 -19 -7 -26 -30 -31 -16 -3 -41 -16 -55 -27 -31 -24 -99 -31 -195 -18 -36 5 -68 6 -73 1 -13 -13 4 -41 29 -47 13 -3 24 -11 24 -16 0 -25 -67 -132 -106 -171 -49 -46 -53 -57 -25 -57 19 0 103 89 151 160 13 19 28 38 33 41 4 3 38 -5 73 -17 36 -13 74 -24 84 -24 11 0 20 -6 20 -13 0 -10 10 -12 32 -9 32 5 32 5 8 14 -13 5 -27 12 -30 16 -3 4 -18 13 -34 20 -16 7 -27 14 -25 17 12 12 199 -57 199 -74 0 -4 17 -15 38 -24 116 -51 268 -50 324 3 13 12 38 28 55 37 35 16 73 69 76 103 1 11 5 20 10 20 14 0 -1 82 -18 100 -8 9 -16 29 -17 43 -2 25 -10 32 -31 28 -15 -2 -19 29 -6 45 11 13 10 17 -4 25 -9 6 -17 21 -17 34 0 29 -8 32 -26 8 -10 -15 -10 -21 3 -35 10 -11 12 -22 5 -35 -5 -10 -7 -23 -5 -30 2 -6 -7 -19 -21 -29 -28 -17 -35 -44 -13 -44 8 0 22 9 32 20 l19 21 21 -24 c12 -13 27 -33 34 -44 26 -49 2 -136 -46 -172 -16 -11 -37 -29 -48 -39 -35 -32 -112 -55 -163 -48 -107 13 -204 42 -214 63 -1 5 -19 19 -38 32 -32 23 -97 40 -163 44 -16 1 -33 10 -39 21 -10 17 -7 18 48 12 107 -12 128 -19 229 -83 51 -33 96 -46 164 -50 87 -5 169 22 191 63 25 46 5 52 -202 61 -103 4 -201 5 -218 2 -23 -5 -30 -3 -30 9 0 24 22 92 30 92 4 0 13 13 20 29 9 22 9 34 0 50 -13 25 -23 26 -45 5 -14 -15 -30 -16 -113 -9 -53 5 -137 9 -187 10 l-90 3 2 118 c1 66 3 194 3 286 l0 167 105 -6 c93 -5 105 -4 105 10 0 9 -17 25 -38 36 -21 11 -44 27 -52 36 -7 9 -26 25 -41 36 -27 19 -45 19 -566 18 -638 -1 -623 -1 -643 14 -13 10 -13 10 -2 -4z m-162 -541 c5 -7 3 -8 -6 -3 -10 6 -12 4 -6 -11 5 -10 10 -39 11 -64 8 -98 18 -165 28 -182 15 -24 2 -33 -28 -20 -24 11 -25 15 -26 109 -3 163 4 208 27 171z m53 -129 c14 -40 14 -92 1 -84 -5 3 -10 22 -10 41 0 20 -5 44 -10 55 -6 11 -7 19 -1 19 5 0 14 -14 20 -31z m344 -46 c-7 -3 -13 -16 -13 -29 0 -28 -17 -31 -36 -6 -13 16 -13 16 -14 0 0 -22 -13 -23 -31 -2 -11 14 -13 14 -21 0 -13 -22 -24 -20 -33 7 l-8 22 -4 -23 c-7 -35 -38 -24 -38 13 0 24 4 29 20 27 54 -7 147 -4 158 7 8 8 14 8 22 0 7 -8 6 -13 -2 -16z m-230 -19 c5 -26 3 -28 -45 -38 -23 -5 -28 -3 -28 13 0 11 -3 26 -6 35 -5 13 1 16 34 16 35 0 40 -3 45 -26z m948 -23 c0 -14 1 -43 3 -64 3 -36 -16 -68 -28 -48 -9 14 -61 -3 -64 -22 -2 -9 2 -17 8 -17 6 0 9 3 7 8 -3 4 18 7 46 6 72 -1 77 -2 77 -15 0 -6 -9 -9 -20 -6 -10 3 -19 2 -18 -2 3 -10 -29 -64 -56 -95 -14 -16 -26 -33 -26 -38 0 -14 -32 -9 -51 7 -15 14 -18 14 -33 0 -18 -18 -72 -23 -87 -8 -12 12 -91 1 -96 -14 -3 -8 14 -13 53 -15 l57 -3 -2 -80 c-1 -44 -6 -82 -11 -85 -4 -3 -32 -5 -62 -5 l-53 0 -3 109 c-2 92 0 108 12 103 8 -3 16 -2 18 4 2 5 23 9 48 10 57 1 100 8 98 17 -1 4 6 24 15 44 10 21 17 41 17 46 0 4 14 21 30 37 17 16 30 35 30 42 0 7 5 13 10 13 13 0 13 36 0 61 -15 28 -6 36 40 36 36 0 40 -2 41 -26z m163 6 c3 -11 3 -23 1 -26 -3 -2 -5 1 -5 8 0 17 -55 -13 -74 -41 -9 -12 -16 -32 -16 -43 0 -14 -6 -21 -19 -21 -11 0 -17 4 -15 8 3 4 0 8 -6 8 -7 0 -8 6 0 19 5 11 10 37 10 59 0 21 2 41 4 43 3 2 29 5 59 6 49 2 56 -1 61 -20z m126 -2 c0 -10 -80 -45 -102 -45 -13 0 -34 -7 -47 -16 -22 -16 -23 -16 -12 5 7 11 17 21 24 21 7 0 20 9 30 20 12 15 29 20 62 20 25 0 45 -2 45 -5z m-1296 -41 c9 -3 16 -15 16 -25 0 -15 -5 -18 -32 -12 -41 7 -42 8 -35 28 7 16 25 19 51 9z m1540 -77 c-8 -21 -44 -23 -44 -2 0 17 32 37 43 26 4 -4 5 -15 1 -24z m-240 -42 c3 -9 0 -15 -10 -15 -8 0 -13 4 -10 9 4 5 0 12 -6 14 -8 4 -7 6 3 6 9 1 19 -6 23 -14z m539 -30 c70 -4 130 -11 133 -16 7 -12 -60 -40 -103 -42 -18 -1 -33 -6 -33 -10 0 -5 -6 -5 -12 0 -14 8 -30 12 -70 16 -16 1 -28 4 -28 7 0 4 -16 12 -35 19 -19 7 -35 16 -35 21 0 11 21 19 40 15 8 -2 72 -7 143 -10z m-1798 -154 c-4 -14 -10 -29 -14 -34 -4 -4 -53 -9 -109 -11 l-102 -5 0 33 c0 18 2 35 4 37 3 2 55 4 116 5 l111 1 -6 -26z"/> <path d="M1257 1005 c-4 -8 -1 -17 5 -21 7 -4 8 -3 4 4 -4 7 -2 12 3 12 6 0 11 5 11 10 0 15 -17 12 -23 -5z"/> <path d="M288 1773 c7 -3 16 -2 19 1 4 3 -2 6 -13 5 -11 0 -14 -3 -6 -6z"/> <path d="M2406 1358 c-9 -37 -7 -73 6 -86 18 -18 34 19 30 68 -4 44 -26 54 -36 18z"/> <path d="M2420 1205 c0 -52 -16 -59 -33 -15 -6 17 -15 30 -19 30 -16 0 -16 -19 0 -53 12 -28 22 -37 42 -37 30 -1 60 -21 60 -43 0 -14 20 -27 41 -27 5 0 9 9 9 20 0 22 -56 90 -74 90 -7 0 -11 15 -9 40 1 22 -2 40 -8 40 -5 0 -9 -20 -9 -45z"/> <path d="M2425 1090 c3 -5 11 -10 16 -10 6 0 7 5 4 10 -3 6 -11 10 -16 10 -6 0 -7 -4 -4 -10z"/> <path d="M2435 1027 c-13 -19 -13 -22 1 -30 9 -5 20 -5 27 1 9 7 23 -3 50 -33 37 -44 37 -44 16 -56 -33 -17 -109 -90 -109 -104 0 -7 -7 -19 -16 -26 -9 -7 -19 -20 -23 -29 -17 -42 -100 -141 -134 -160 -52 -30 -118 -36 -168 -16 l-40 16 18 -24 c10 -13 29 -26 43 -29 46 -9 136 1 169 17 32 17 108 114 176 224 46 75 96 122 130 122 14 0 25 2 25 6 0 19 -49 84 -79 105 -54 39 -68 41 -86 16z"/> <path d="M478 913 c7 -3 16 -2 19 1 4 3 -2 6 -13 5 -11 0 -14 -3 -6 -6z"/> <path d="M438 903 c7 -3 16 -2 19 1 4 3 -2 6 -13 5 -11 0 -14 -3 -6 -6z"/> <path d="M2561 859 c-13 -5 -30 -17 -37 -27 -22 -29 -55 -101 -60 -129 -6 -32 -40 -169 -49 -200 -11 -34 12 -28 34 8 11 17 25 61 31 96 14 72 53 128 96 139 13 3 24 10 24 15 0 12 -27 11 -52 -2 -28 -15 -32 -6 -12 33 21 42 26 45 70 41 47 -3 48 -5 24 -31 -11 -12 -20 -34 -20 -50 0 -21 -7 -32 -24 -40 -58 -26 -95 -147 -70 -227 16 -56 44 -96 78 -114 14 -8 27 -20 31 -29 4 -12 -1 -13 -32 -7 -56 12 -715 8 -747 -4 -38 -15 -35 13 4 36 35 20 75 94 67 123 -3 11 -2 18 2 15 8 -4 91 -13 186 -20 28 -2 84 -6 126 -10 81 -7 119 3 119 31 0 13 -6 14 -27 8 -37 -12 -233 -7 -267 6 -17 6 -26 17 -26 32 l0 22 -20 -22 c-30 -32 -122 -31 -171 2 -20 14 -58 29 -85 34 -27 6 -75 16 -106 23 -65 15 -75 10 -78 -36 -4 -53 -2 -55 43 -55 119 -1 147 -2 151 -9 3 -4 32 -4 65 -1 47 4 61 3 61 -8 0 -7 -4 -11 -9 -7 -6 3 -15 -4 -22 -16 -22 -41 -71 -88 -104 -99 -32 -11 -104 0 -147 21 -29 15 -81 118 -80 158 3 80 44 123 144 148 75 19 90 9 59 -40 -11 -19 -21 -37 -21 -41 0 -13 23 -5 35 11 13 17 14 17 32 0 11 -9 25 -17 31 -17 6 0 19 -10 29 -22 15 -19 30 -24 81 -26 36 -2 62 1 62 7 0 11 -39 20 -90 20 -26 0 -41 7 -59 28 -13 15 -33 32 -44 38 -27 13 -32 31 -11 39 12 5 30 -7 60 -39 39 -40 74 -58 74 -37 0 4 -20 28 -44 55 -29 31 -52 47 -68 47 -14 0 -33 9 -43 20 -44 48 -164 11 -226 -71 -29 -37 -50 -117 -42 -158 13 -72 72 -148 131 -166 13 -4 21 -12 19 -18 -2 -7 -110 -12 -343 -14 -186 -2 -383 -5 -437 -6 -54 -1 -100 -1 -102 2 -2 2 10 13 28 25 68 45 97 169 59 252 -9 22 -33 56 -52 76 -30 31 -44 38 -100 46 -89 13 -184 -1 -227 -34 -55 -42 -63 -61 -65 -167 -3 -106 7 -130 70 -173 16 -11 27 -25 24 -30 -4 -5 -111 -11 -242 -13 -129 -1 -238 -5 -242 -7 -5 -3 -8 -12 -8 -20 0 -13 15 -15 103 -10 246 13 667 23 757 18 134 -7 752 12 794 24 10 4 231 7 490 8 259 1 517 6 573 10 l103 7 44 43 c62 61 79 98 78 173 -1 65 -23 123 -59 155 -50 46 -173 74 -212 49 -17 -11 -41 -3 -41 13 0 35 97 46 165 20 62 -24 89 -29 80 -15 -9 15 -119 66 -163 76 -18 3 -34 11 -37 16 -8 12 -83 11 -114 -2z m263 -168 c57 -28 76 -62 77 -141 1 -68 -22 -115 -73 -151 -38 -27 -137 -31 -165 -7 -10 8 -25 18 -34 21 -9 3 -30 22 -45 43 -39 50 -40 133 -4 199 28 51 39 55 60 21 8 -12 30 -45 47 -71 21 -31 29 -52 24 -59 -16 -20 14 -48 43 -40 18 4 34 -1 56 -16 17 -12 34 -19 38 -15 8 8 -37 44 -55 45 -7 0 -13 5 -13 10 0 10 15 14 34 11 17 -4 66 11 66 19 0 12 -62 10 -78 -3 -12 -10 -62 8 -62 22 0 4 -18 30 -40 60 -22 29 -40 59 -40 66 0 22 109 12 164 -14z m-2099 -32 c56 -33 85 -87 85 -159 0 -55 -21 -96 -66 -129 -42 -32 -136 -52 -148 -33 -3 6 -14 8 -25 5 -24 -6 -86 48 -108 95 -23 48 -21 119 3 159 21 33 74 81 74 67 0 -5 6 -2 13 5 18 18 135 12 172 -10z m910 -89 c3 -5 -1 -10 -9 -10 -8 0 -18 5 -21 10 -3 6 1 10 9 10 8 0 18 -4 21 -10z"/> <path d="M2791 623 c-12 -14 -19 -28 -16 -31 7 -7 57 30 63 46 7 22 -27 12 -47 -15z"/> <path d="M2600 621 c0 -13 50 -44 58 -36 4 4 -4 15 -17 26 -25 20 -41 24 -41 10z"/> <path d="M2623 542 c-49 -5 -40 -22 12 -22 25 0 45 4 45 9 0 12 -20 17 -57 13z"/> <path d="M2676 458 c-23 -33 -9 -36 22 -5 21 21 23 27 10 27 -9 0 -24 -10 -32 -22z"/> <path d="M2748 474 c-4 -8 -4 -16 0 -51 3 -23 22 -14 22 10 0 25 -15 53 -22 41z"/> <path d="M560 632 c0 -13 31 -52 41 -52 5 0 3 14 -6 30 -14 28 -35 41 -35 22z"/> <path d="M644 627 c-3 -9 -3 -25 1 -34 6 -16 8 -15 16 6 6 16 6 28 0 34 -7 7 -12 5 -17 -6z"/> <path d="M700 575 c-13 -14 -20 -25 -16 -25 15 0 66 31 66 40 0 18 -26 10 -50 -15z"/> <path d="M500 570 c-10 -6 -8 -11 8 -19 24 -13 52 -14 52 -3 0 14 -46 31 -60 22z"/> <path d="M591 544 c-15 -11 -21 -24 -19 -44 2 -21 -5 -35 -25 -50 -15 -12 -27 -29 -27 -38 1 -13 9 -8 30 16 29 31 50 41 50 23 0 -4 11 -6 25 -3 28 5 55 36 55 63 0 36 -55 56 -89 33z m36 -46 c-3 -8 -6 -5 -6 6 -1 11 2 17 5 13 3 -3 4 -12 1 -19z"/> <path d="M723 523 c-25 -10 -12 -23 22 -23 36 0 47 13 19 24 -18 7 -23 7 -41 -1z"/> <path d="M490 501 c0 -6 4 -12 9 -15 13 -8 42 4 35 15 -7 12 -44 12 -44 0z"/> <path d="M690 447 c0 -15 47 -44 56 -35 7 8 -32 48 -46 48 -5 0 -10 -6 -10 -13z"/> <path d="M589 406 c-9 -19 -9 -30 -2 -37 8 -8 13 -2 18 21 9 41 -1 50 -16 16z"/> <path d="M640 406 c0 -24 16 -43 27 -32 8 8 -6 56 -17 56 -6 0 -10 -11 -10 -24z"/> <path d="M668 813 c7 -3 16 -2 19 1 4 3 -2 6 -13 5 -11 0 -14 -3 -6 -6z"/> <path d="M570 791 c0 -18 30 -25 43 -11 9 10 9 11 -1 6 -7 -4 -19 -2 -27 4 -11 9 -15 9 -15 1z"/> <path d="M1910 683 c48 -53 70 -73 82 -73 17 0 1 27 -44 72 -64 65 -96 65 -38 1z"/> <path d="M1660 661 c0 -5 5 -13 10 -16 6 -3 10 -2 10 4 0 5 -4 13 -10 16 -5 3 -10 2 -10 -4z"/> <path d="M1630 470 c-12 -12 -19 -24 -16 -28 4 -3 16 4 28 16 12 12 19 24 16 28 -4 3 -16 -4 -28 -16z"/> <path d="M1723 460 c4 -14 7 -28 7 -32 0 -5 6 -8 14 -8 18 0 10 34 -12 52 -13 11 -15 10 -9 -12z"/> <path d="M2989 356 c-4 -3 -103 -15 -136 -16 -7 0 -13 -4 -13 -10 0 -6 33 -10 80 -10 73 0 80 2 80 20 0 20 -3 24 -11 16z"/> </g> </svg> 